<svg xmlns="http://www.w3.org/2000/svg" xmlns:xlink="http://www.w3.org/1999/xlink" width="200" zoomAndPan="magnify" viewBox="0 0 150 149.999998" height="200" preserveAspectRatio="xMidYMid meet" version="1.0"><path fill="#292424" d="M 75 0 C 73.773438 0 72.546875 0.03125 71.320312 0.0898438 C 70.09375 0.152344 68.871094 0.242188 67.648438 0.359375 C 66.425781 0.480469 65.210938 0.632812 63.996094 0.8125 C 62.78125 0.992188 61.570312 1.203125 60.367188 1.441406 C 59.164062 1.679688 57.96875 1.949219 56.777344 2.246094 C 55.585938 2.546875 54.402344 2.875 53.230469 3.230469 C 52.054688 3.585938 50.890625 3.96875 49.734375 4.382812 C 48.578125 4.796875 47.433594 5.238281 46.296875 5.710938 C 45.164062 6.179688 44.042969 6.675781 42.933594 7.199219 C 41.824219 7.726562 40.726562 8.277344 39.644531 8.855469 C 38.5625 9.433594 37.496094 10.039062 36.441406 10.671875 C 35.390625 11.300781 34.351562 11.957031 33.332031 12.640625 C 32.3125 13.320312 31.308594 14.027344 30.324219 14.757812 C 29.335938 15.492188 28.371094 16.246094 27.421875 17.023438 C 26.472656 17.804688 25.542969 18.605469 24.632812 19.429688 C 23.722656 20.253906 22.835938 21.097656 21.96875 21.96875 C 21.097656 22.835938 20.253906 23.722656 19.429688 24.632812 C 18.605469 25.542969 17.804688 26.472656 17.023438 27.421875 C 16.246094 28.371094 15.492188 29.335938 14.757812 30.324219 C 14.027344 31.308594 13.320312 32.3125 12.640625 33.332031 C 11.957031 34.351562 11.300781 35.390625 10.671875 36.441406 C 10.039062 37.496094 9.433594 38.5625 8.855469 39.644531 C 8.277344 40.726562 7.726562 41.824219 7.199219 42.933594 C 6.675781 44.042969 6.179688 45.164062 5.710938 46.296875 C 5.238281 47.433594 4.796875 48.578125 4.382812 49.734375 C 3.96875 50.890625 3.585938 52.054688 3.230469 53.230469 C 2.875 54.402344 2.546875 55.585938 2.246094 56.777344 C 1.949219 57.96875 1.679688 59.164062 1.441406 60.367188 C 1.203125 61.570312 0.992188 62.78125 0.8125 63.996094 C 0.632812 65.210938 0.480469 66.425781 0.359375 67.648438 C 0.242188 68.871094 0.152344 70.09375 0.0898438 71.320312 C 0.03125 72.546875 0 73.773438 0 75 C 0 76.226562 0.03125 77.453125 0.0898438 78.679688 C 0.152344 79.90625 0.242188 81.128906 0.359375 82.351562 C 0.480469 83.574219 0.632812 84.789062 0.8125 86.003906 C 0.992188 87.21875 1.203125 88.429688 1.441406 89.632812 C 1.679688 90.835938 1.949219 92.03125 2.246094 93.222656 C 2.546875 94.414062 2.875 95.597656 3.230469 96.769531 C 3.585938 97.945312 3.96875 99.109375 4.382812 100.265625 C 4.796875 101.421875 5.238281 102.566406 5.710938 103.703125 C 6.179688 104.835938 6.675781 105.957031 7.199219 107.066406 C 7.726562 108.175781 8.277344 109.273438 8.855469 110.355469 C 9.433594 111.4375 10.039062 112.503906 10.671875 113.558594 C 11.300781 114.609375 11.957031 115.648438 12.640625 116.667969 C 13.320312 117.6875 14.027344 118.691406 14.757812 119.675781 C 15.492188 120.664062 16.246094 121.628906 17.023438 122.578125 C 17.804688 123.527344 18.605469 124.457031 19.429688 125.367188 C 20.253906 126.277344 21.097656 127.164062 21.96875 128.03125 C 22.835938 128.902344 23.722656 129.746094 24.632812 130.570312 C 25.542969 131.394531 26.472656 132.195312 27.421875 132.976562 C 28.371094 133.753906 29.335938 134.507812 30.324219 135.242188 C 31.308594 135.972656 32.3125 136.679688 33.332031 137.359375 C 34.351562 138.042969 35.390625 138.699219 36.441406 139.328125 C 37.496094 139.960938 38.5625 140.566406 39.644531 141.144531 C 40.726562 141.722656 41.824219 142.273438 42.933594 142.800781 C 44.042969 143.324219 45.164062 143.820312 46.296875 144.289062 C 47.433594 144.761719 48.578125 145.203125 49.734375 145.617188 C 50.890625 146.027344 52.054688 146.414062 53.230469 146.769531 C 54.402344 147.125 55.585938 147.453125 56.777344 147.753906 C 57.96875 148.050781 59.164062 148.320312 60.367188 148.558594 C 61.570312 148.796875 62.78125 149.007812 63.996094 149.1875 C 65.210938 149.367188 66.425781 149.519531 67.648438 149.640625 C 68.871094 149.757812 70.09375 149.847656 71.320312 149.910156 C 72.546875 149.96875 73.773438 150 75 150 C 76.226562 150 77.453125 149.96875 78.679688 149.910156 C 79.90625 149.847656 81.128906 149.757812 82.351562 149.640625 C 83.574219 149.519531 84.789062 149.367188 86.003906 149.1875 C 87.21875 149.007812 88.429688 148.796875 89.632812 148.558594 C 90.835938 148.320312 92.03125 148.050781 93.222656 147.753906 C 94.414062 147.453125 95.597656 147.125 96.769531 146.769531 C 97.945312 146.414062 99.109375 146.027344 100.265625 145.617188 C 101.421875 145.203125 102.566406 144.761719 103.703125 144.289062 C 104.835938 143.820312 105.957031 143.324219 107.066406 142.800781 C 108.175781 142.273438 109.273438 141.722656 110.355469 141.144531 C 111.4375 140.566406 112.503906 139.960938 113.558594 139.328125 C 114.609375 138.699219 115.648438 138.042969 116.667969 137.359375 C 117.6875 136.679688 118.691406 135.972656 119.675781 135.242188 C 120.664062 134.507812 121.628906 133.753906 122.578125 132.976562 C 123.527344 132.195312 124.457031 131.394531 125.367188 130.570312 C 126.277344 129.746094 127.164062 128.902344 128.03125 128.03125 C 128.902344 127.164062 129.746094 126.277344 130.570312 125.367188 C 131.394531 124.457031 132.195312 123.527344 132.976562 122.578125 C 133.753906 121.628906 134.507812 120.664062 135.242188 119.675781 C 135.972656 118.691406 136.679688 117.6875 137.359375 116.667969 C 138.042969 115.648438 138.699219 114.609375 139.328125 113.558594 C 139.960938 112.503906 140.566406 111.4375 141.144531 110.355469 C 141.722656 109.273438 142.273438 108.175781 142.800781 107.066406 C 143.324219 105.957031 143.820312 104.835938 144.289062 103.703125 C 144.761719 102.566406 145.203125 101.421875 145.617188 100.265625 C 146.027344 99.109375 146.414062 97.945312 146.769531 96.769531 C 147.125 95.597656 147.453125 94.414062 147.753906 93.222656 C 148.050781 92.03125 148.320312 90.835938 148.558594 89.632812 C 148.796875 88.429688 149.007812 87.21875 149.1875 86.003906 C 149.367188 84.789062 149.519531 83.574219 149.640625 82.351562 C 149.757812 81.128906 149.847656 79.90625 149.910156 78.679688 C 149.96875 77.453125 150 76.226562 150 75 C 150 73.773438 149.96875 72.546875 149.910156 71.320312 C 149.847656 70.09375 149.757812 68.871094 149.636719 67.648438 C 149.515625 66.425781 149.367188 65.210938 149.1875 63.996094 C 149.007812 62.78125 148.796875 61.574219 148.558594 60.367188 C 148.316406 59.164062 148.046875 57.96875 147.75 56.777344 C 147.453125 55.585938 147.125 54.402344 146.769531 53.230469 C 146.410156 52.054688 146.027344 50.890625 145.613281 49.734375 C 145.199219 48.578125 144.757812 47.433594 144.289062 46.300781 C 143.820312 45.167969 143.320312 44.042969 142.796875 42.933594 C 142.273438 41.824219 141.71875 40.730469 141.140625 39.648438 C 140.5625 38.566406 139.957031 37.496094 139.328125 36.445312 C 138.695312 35.390625 138.039062 34.355469 137.355469 33.335938 C 136.675781 32.3125 135.96875 31.3125 135.238281 30.324219 C 134.507812 29.339844 133.75 28.371094 132.972656 27.421875 C 132.195312 26.472656 131.394531 25.546875 130.570312 24.636719 C 129.746094 23.726562 128.898438 22.835938 128.03125 21.96875 C 127.164062 21.101562 126.273438 20.253906 125.363281 19.429688 C 124.453125 18.605469 123.527344 17.804688 122.578125 17.027344 C 121.628906 16.25 120.660156 15.492188 119.675781 14.761719 C 118.6875 14.03125 117.6875 13.324219 116.664062 12.644531 C 115.644531 11.960938 114.609375 11.304688 113.554688 10.671875 C 112.503906 10.042969 111.433594 9.4375 110.351562 8.859375 C 109.269531 8.28125 108.175781 7.726562 107.066406 7.203125 C 105.957031 6.679688 104.832031 6.179688 103.699219 5.710938 C 102.566406 5.242188 101.421875 4.800781 100.265625 4.386719 C 99.109375 3.972656 97.945312 3.589844 96.769531 3.230469 C 95.597656 2.875 94.414062 2.546875 93.222656 2.25 C 92.03125 1.953125 90.835938 1.683594 89.632812 1.441406 C 88.425781 1.203125 87.21875 0.992188 86.003906 0.8125 C 84.789062 0.632812 83.574219 0.484375 82.351562 0.363281 C 81.128906 0.242188 79.90625 0.152344 78.679688 0.0898438 C 77.453125 0.03125 76.226562 0 75 0 Z M 75 28.125 C 75.886719 28.125 76.773438 28.175781 77.65625 28.277344 C 78.539062 28.378906 79.410156 28.53125 80.277344 28.734375 C 81.140625 28.9375 81.992188 29.191406 82.824219 29.492188 C 83.660156 29.792969 84.476562 30.144531 85.269531 30.539062 C 86.066406 30.9375 86.835938 31.375 87.578125 31.863281 C 88.324219 32.347656 89.035156 32.875 89.71875 33.441406 C 90.402344 34.007812 91.050781 34.613281 91.664062 35.257812 C 92.277344 35.898438 92.847656 36.578125 93.382812 37.285156 C 93.917969 37.996094 94.410156 38.734375 94.859375 39.5 C 95.308594 40.265625 95.710938 41.054688 96.070312 41.867188 C 96.425781 42.679688 96.734375 43.511719 96.996094 44.359375 C 97.257812 45.210938 97.46875 46.070312 97.632812 46.945312 C 97.792969 47.816406 97.902344 48.695312 97.964844 49.582031 C 98.023438 50.46875 98.03125 51.355469 97.988281 52.242188 C 97.945312 53.128906 97.851562 54.011719 97.707031 54.886719 C 97.5625 55.765625 97.367188 56.628906 97.121094 57.480469 C 96.875 58.335938 96.582031 59.171875 96.238281 59.992188 C 95.898438 60.8125 95.507812 61.609375 95.074219 62.382812 C 94.640625 63.15625 94.160156 63.90625 93.640625 64.625 C 93.121094 65.34375 92.558594 66.03125 91.957031 66.683594 C 91.359375 67.339844 90.722656 67.957031 90.050781 68.535156 C 89.378906 69.117188 88.675781 69.65625 87.941406 70.15625 C 87.203125 70.65625 86.445312 71.109375 85.65625 71.523438 C 84.871094 71.933594 84.0625 72.296875 83.230469 72.613281 C 82.402344 72.929688 81.558594 73.199219 80.695312 73.417969 C 79.835938 73.640625 78.964844 73.808594 78.085938 73.925781 C 77.203125 74.046875 76.320312 74.113281 75.433594 74.128906 C 74.542969 74.144531 73.660156 74.109375 72.773438 74.023438 C 71.890625 73.9375 71.015625 73.800781 70.148438 73.613281 C 69.277344 73.425781 68.425781 73.1875 67.585938 72.902344 C 66.742188 72.613281 65.921875 72.28125 65.121094 71.898438 C 64.320312 71.515625 63.542969 71.089844 62.789062 70.617188 C 43.476562 58.382812 51.84375 28.359375 75 28.125 Z M 101.976562 121.875 L 48.023438 121.875 C 47.464844 121.875 46.910156 121.84375 46.359375 121.789062 C 45.804688 121.734375 45.253906 121.652344 44.707031 121.542969 C 44.160156 121.433594 43.621094 121.296875 43.089844 121.136719 C 42.558594 120.972656 42.035156 120.785156 41.519531 120.570312 C 41.007812 120.355469 40.503906 120.117188 40.011719 119.855469 C 39.523438 119.59375 39.046875 119.304688 38.582031 118.996094 C 38.121094 118.6875 37.675781 118.355469 37.246094 118 C 36.8125 117.648438 36.402344 117.273438 36.007812 116.878906 C 35.617188 116.488281 35.242188 116.074219 34.890625 115.644531 C 34.535156 115.214844 34.207031 114.765625 33.898438 114.304688 C 33.585938 113.839844 33.300781 113.363281 33.039062 112.871094 C 32.777344 112.382812 32.539062 111.878906 32.328125 111.363281 C 32.113281 110.851562 31.925781 110.328125 31.765625 109.792969 C 31.601562 109.261719 31.46875 108.722656 31.359375 108.175781 C 31.25 107.628906 31.167969 107.078125 31.113281 106.527344 C 31.058594 105.972656 31.03125 105.417969 31.03125 104.859375 C 31.03125 90.445312 41.648438 78 56.882812 72.398438 C 57.507812 72.929688 58.160156 73.429688 58.828125 73.902344 C 59.5 74.378906 60.191406 74.820312 60.902344 75.234375 C 61.609375 75.644531 62.335938 76.027344 63.082031 76.375 C 63.824219 76.726562 64.582031 77.039062 65.351562 77.324219 C 66.125 77.605469 66.90625 77.855469 67.699219 78.066406 C 68.492188 78.28125 69.292969 78.460938 70.101562 78.601562 C 70.910156 78.746094 71.722656 78.855469 72.542969 78.925781 C 73.359375 79 74.179688 79.035156 75 79.035156 C 75.820312 79.035156 76.640625 79 77.457031 78.925781 C 78.277344 78.855469 79.089844 78.746094 79.898438 78.601562 C 80.707031 78.460938 81.507812 78.28125 82.300781 78.066406 C 83.09375 77.855469 83.875 77.605469 84.648438 77.324219 C 85.417969 77.039062 86.175781 76.726562 86.917969 76.375 C 87.664062 76.027344 88.390625 75.644531 89.097656 75.234375 C 89.808594 74.820312 90.5 74.378906 91.171875 73.902344 C 91.839844 73.429688 92.492188 72.929688 93.117188 72.398438 C 108.351562 78 118.96875 90.445312 118.96875 104.859375 C 118.96875 105.417969 118.941406 105.972656 118.886719 106.527344 C 118.832031 107.078125 118.75 107.628906 118.640625 108.175781 C 118.53125 108.722656 118.398438 109.261719 118.234375 109.792969 C 118.074219 110.328125 117.886719 110.851562 117.671875 111.363281 C 117.460938 111.878906 117.222656 112.382812 116.960938 112.871094 C 116.699219 113.363281 116.414062 113.839844 116.101562 114.304688 C 115.792969 114.765625 115.464844 115.214844 115.109375 115.644531 C 114.757812 116.074219 114.382812 116.488281 113.992188 116.878906 C 113.597656 117.273438 113.1875 117.648438 112.753906 118 C 112.324219 118.355469 111.878906 118.6875 111.417969 118.996094 C 110.953125 119.304688 110.476562 119.59375 109.988281 119.855469 C 109.496094 120.117188 108.992188 120.355469 108.480469 120.570312 C 107.964844 120.785156 107.441406 120.972656 106.910156 121.136719 C 106.378906 121.296875 105.839844 121.433594 105.292969 121.542969 C 104.746094 121.652344 104.195312 121.734375 103.640625 121.789062 C 103.089844 121.84375 102.535156 121.875 101.976562 121.875 Z M 101.976562 121.875 " fill-opacity="1" fill-rule="nonzero"/></svg>